<mxfile host="app.diagrams.net" modified="2023-11-10T16:35:54.775Z" agent="Mozilla/5.0 (Windows NT 10.0; Win64; x64) AppleWebKit/537.36 (KHTML, like Gecko) Chrome/119.0.0.0 Safari/537.36" etag="2KNmRozd5DYJhca5df9h" version="22.1.0" type="github">
  <diagram id="C5RBs43oDa-KdzZeNtuy" name="Page-1">
    <mxGraphModel dx="1500" dy="774" grid="1" gridSize="10" guides="1" tooltips="1" connect="1" arrows="1" fold="1" page="1" pageScale="1" pageWidth="2336" pageHeight="1654" math="0" shadow="0">
      <root>
        <mxCell id="WIyWlLk6GJQsqaUBKTNV-0" />
        <mxCell id="WIyWlLk6GJQsqaUBKTNV-1" parent="WIyWlLk6GJQsqaUBKTNV-0" />
        <mxCell id="kqGL1mfBmwDGvMiJkUWf-0" value="&lt;font style=&quot;font-size: 25px;&quot;&gt;Stock&lt;/font&gt;" style="whiteSpace=wrap;html=1;align=center;" vertex="1" parent="WIyWlLk6GJQsqaUBKTNV-1">
          <mxGeometry x="930" y="280" width="218" height="90" as="geometry" />
        </mxCell>
        <mxCell id="kqGL1mfBmwDGvMiJkUWf-1" value="&lt;font style=&quot;font-size: 25px;&quot;&gt;Capital&lt;/font&gt;" style="whiteSpace=wrap;html=1;align=center;" vertex="1" parent="WIyWlLk6GJQsqaUBKTNV-1">
          <mxGeometry x="930" y="433" width="218" height="97" as="geometry" />
        </mxCell>
        <mxCell id="kqGL1mfBmwDGvMiJkUWf-2" value="&lt;font style=&quot;font-size: 19px;&quot;&gt;Proceso de compra&lt;/font&gt;" style="text;html=1;strokeColor=none;fillColor=none;align=center;verticalAlign=middle;whiteSpace=wrap;rounded=0;" vertex="1" parent="WIyWlLk6GJQsqaUBKTNV-1">
          <mxGeometry x="420" y="80" width="180" height="60" as="geometry" />
        </mxCell>
        <mxCell id="kqGL1mfBmwDGvMiJkUWf-4" value="" style="endArrow=classic;html=1;rounded=0;exitX=0.5;exitY=1;exitDx=0;exitDy=0;" edge="1" parent="WIyWlLk6GJQsqaUBKTNV-1" source="kqGL1mfBmwDGvMiJkUWf-10" target="kqGL1mfBmwDGvMiJkUWf-8">
          <mxGeometry width="50" height="50" relative="1" as="geometry">
            <mxPoint x="437.5" y="260" as="sourcePoint" />
            <mxPoint x="510" y="380" as="targetPoint" />
          </mxGeometry>
        </mxCell>
        <mxCell id="kqGL1mfBmwDGvMiJkUWf-5" value="Text" style="edgeLabel;html=1;align=center;verticalAlign=middle;resizable=0;points=[];" vertex="1" connectable="0" parent="kqGL1mfBmwDGvMiJkUWf-4">
          <mxGeometry x="0.0364" y="1" relative="1" as="geometry">
            <mxPoint as="offset" />
          </mxGeometry>
        </mxCell>
        <mxCell id="kqGL1mfBmwDGvMiJkUWf-7" value="Nos lo aceptan" style="edgeLabel;html=1;align=center;verticalAlign=middle;resizable=0;points=[];" vertex="1" connectable="0" parent="kqGL1mfBmwDGvMiJkUWf-4">
          <mxGeometry x="0.0428" y="2" relative="1" as="geometry">
            <mxPoint as="offset" />
          </mxGeometry>
        </mxCell>
        <mxCell id="kqGL1mfBmwDGvMiJkUWf-22" style="edgeStyle=orthogonalEdgeStyle;rounded=0;orthogonalLoop=1;jettySize=auto;html=1;exitX=0.5;exitY=1;exitDx=0;exitDy=0;entryX=0.5;entryY=0;entryDx=0;entryDy=0;" edge="1" parent="WIyWlLk6GJQsqaUBKTNV-1" source="kqGL1mfBmwDGvMiJkUWf-8" target="kqGL1mfBmwDGvMiJkUWf-26">
          <mxGeometry relative="1" as="geometry">
            <mxPoint x="503" y="450" as="targetPoint" />
          </mxGeometry>
        </mxCell>
        <mxCell id="kqGL1mfBmwDGvMiJkUWf-8" value="&lt;font style=&quot;font-size: 19px;&quot;&gt;Tenemos un pedido&lt;/font&gt;" style="rounded=0;whiteSpace=wrap;html=1;" vertex="1" parent="WIyWlLk6GJQsqaUBKTNV-1">
          <mxGeometry x="396.25" y="320" width="213.75" height="60" as="geometry" />
        </mxCell>
        <mxCell id="kqGL1mfBmwDGvMiJkUWf-10" value="Creamos un presupuesto, y se lo enviamos a los proveedores." style="ellipse;whiteSpace=wrap;html=1;align=center;" vertex="1" parent="WIyWlLk6GJQsqaUBKTNV-1">
          <mxGeometry x="290" y="150" width="200" height="60" as="geometry" />
        </mxCell>
        <mxCell id="kqGL1mfBmwDGvMiJkUWf-11" value="Le pediomos un presupuesto a los proveedores de x productos." style="ellipse;whiteSpace=wrap;html=1;align=center;" vertex="1" parent="WIyWlLk6GJQsqaUBKTNV-1">
          <mxGeometry x="520" y="150" width="200" height="60" as="geometry" />
        </mxCell>
        <mxCell id="kqGL1mfBmwDGvMiJkUWf-13" value="" style="endArrow=classic;html=1;rounded=0;exitX=0.5;exitY=1;exitDx=0;exitDy=0;entryX=0.636;entryY=-0.021;entryDx=0;entryDy=0;entryPerimeter=0;" edge="1" parent="WIyWlLk6GJQsqaUBKTNV-1" source="kqGL1mfBmwDGvMiJkUWf-11" target="kqGL1mfBmwDGvMiJkUWf-8">
          <mxGeometry width="50" height="50" relative="1" as="geometry">
            <mxPoint x="730" y="380" as="sourcePoint" />
            <mxPoint x="780" y="330" as="targetPoint" />
          </mxGeometry>
        </mxCell>
        <mxCell id="kqGL1mfBmwDGvMiJkUWf-14" value="Lo aceptamos" style="edgeLabel;html=1;align=center;verticalAlign=middle;resizable=0;points=[];" vertex="1" connectable="0" parent="kqGL1mfBmwDGvMiJkUWf-13">
          <mxGeometry x="-0.078" y="-1" relative="1" as="geometry">
            <mxPoint y="9" as="offset" />
          </mxGeometry>
        </mxCell>
        <mxCell id="kqGL1mfBmwDGvMiJkUWf-15" value="&lt;font style=&quot;font-size: 24px;&quot;&gt;Presupuestos&lt;/font&gt;" style="text;html=1;align=center;verticalAlign=middle;resizable=0;points=[];autosize=1;strokeColor=none;fillColor=none;" vertex="1" parent="WIyWlLk6GJQsqaUBKTNV-1">
          <mxGeometry x="80" y="160" width="170" height="40" as="geometry" />
        </mxCell>
        <mxCell id="kqGL1mfBmwDGvMiJkUWf-16" value="" style="shape=flexArrow;endArrow=classic;html=1;rounded=0;endWidth=35.294117647058826;endSize=12.470588235294118;width=18.823529411764707;" edge="1" parent="WIyWlLk6GJQsqaUBKTNV-1">
          <mxGeometry width="50" height="50" relative="1" as="geometry">
            <mxPoint x="170" y="220" as="sourcePoint" />
            <mxPoint x="170" y="320" as="targetPoint" />
          </mxGeometry>
        </mxCell>
        <mxCell id="kqGL1mfBmwDGvMiJkUWf-17" value="&lt;font style=&quot;font-size: 24px;&quot;&gt;Pedidos&lt;/font&gt;" style="text;html=1;align=center;verticalAlign=middle;resizable=0;points=[];autosize=1;strokeColor=none;fillColor=none;" vertex="1" parent="WIyWlLk6GJQsqaUBKTNV-1">
          <mxGeometry x="120" y="340" width="110" height="40" as="geometry" />
        </mxCell>
        <mxCell id="kqGL1mfBmwDGvMiJkUWf-18" value="" style="shape=flexArrow;endArrow=classic;html=1;rounded=0;endWidth=35.294117647058826;endSize=12.470588235294118;width=18.823529411764707;" edge="1" parent="WIyWlLk6GJQsqaUBKTNV-1">
          <mxGeometry width="50" height="50" relative="1" as="geometry">
            <mxPoint x="170" y="400" as="sourcePoint" />
            <mxPoint x="170" y="490" as="targetPoint" />
            <Array as="points" />
          </mxGeometry>
        </mxCell>
        <mxCell id="kqGL1mfBmwDGvMiJkUWf-19" value="&lt;font style=&quot;font-size: 24px;&quot;&gt;Albaranes&lt;/font&gt;" style="text;html=1;align=center;verticalAlign=middle;resizable=0;points=[];autosize=1;strokeColor=none;fillColor=none;" vertex="1" parent="WIyWlLk6GJQsqaUBKTNV-1">
          <mxGeometry x="110" y="520" width="130" height="40" as="geometry" />
        </mxCell>
        <mxCell id="kqGL1mfBmwDGvMiJkUWf-20" value="" style="shape=flexArrow;endArrow=classic;html=1;rounded=0;endWidth=35.294117647058826;endSize=12.470588235294118;width=18.823529411764707;" edge="1" parent="WIyWlLk6GJQsqaUBKTNV-1">
          <mxGeometry width="50" height="50" relative="1" as="geometry">
            <mxPoint x="170" y="580" as="sourcePoint" />
            <mxPoint x="170" y="670" as="targetPoint" />
            <Array as="points" />
          </mxGeometry>
        </mxCell>
        <mxCell id="kqGL1mfBmwDGvMiJkUWf-21" value="&lt;font style=&quot;font-size: 24px;&quot;&gt;Facturas&lt;/font&gt;" style="text;html=1;align=center;verticalAlign=middle;resizable=0;points=[];autosize=1;strokeColor=none;fillColor=none;" vertex="1" parent="WIyWlLk6GJQsqaUBKTNV-1">
          <mxGeometry x="115" y="700" width="120" height="40" as="geometry" />
        </mxCell>
        <mxCell id="kqGL1mfBmwDGvMiJkUWf-29" style="edgeStyle=orthogonalEdgeStyle;rounded=0;orthogonalLoop=1;jettySize=auto;html=1;exitX=0.5;exitY=1;exitDx=0;exitDy=0;entryX=0.5;entryY=0;entryDx=0;entryDy=0;" edge="1" parent="WIyWlLk6GJQsqaUBKTNV-1" source="kqGL1mfBmwDGvMiJkUWf-26" target="kqGL1mfBmwDGvMiJkUWf-28">
          <mxGeometry relative="1" as="geometry" />
        </mxCell>
        <mxCell id="kqGL1mfBmwDGvMiJkUWf-26" value="Van llegando los albaranes a medida que llegan los productos pedidos a los almacenes" style="ellipse;whiteSpace=wrap;html=1;align=center;" vertex="1" parent="WIyWlLk6GJQsqaUBKTNV-1">
          <mxGeometry x="384.06" y="490" width="238.13" height="100" as="geometry" />
        </mxCell>
        <mxCell id="kqGL1mfBmwDGvMiJkUWf-28" value="&lt;font style=&quot;font-size: 19px;&quot;&gt;Tenemos una factura&lt;/font&gt;" style="rounded=0;whiteSpace=wrap;html=1;" vertex="1" parent="WIyWlLk6GJQsqaUBKTNV-1">
          <mxGeometry x="396.25" y="690" width="213.75" height="60" as="geometry" />
        </mxCell>
        <mxCell id="kqGL1mfBmwDGvMiJkUWf-30" value="Cuando tenemos todos los productos en los almacenes, emitimos la factura" style="text;html=1;strokeColor=none;fillColor=none;align=center;verticalAlign=middle;whiteSpace=wrap;rounded=0;" vertex="1" parent="WIyWlLk6GJQsqaUBKTNV-1">
          <mxGeometry x="510" y="610" width="120" height="50" as="geometry" />
        </mxCell>
        <mxCell id="kqGL1mfBmwDGvMiJkUWf-31" value="" style="endArrow=classic;html=1;rounded=0;exitX=1;exitY=0.5;exitDx=0;exitDy=0;entryX=0;entryY=0.5;entryDx=0;entryDy=0;" edge="1" parent="WIyWlLk6GJQsqaUBKTNV-1" source="kqGL1mfBmwDGvMiJkUWf-26" target="kqGL1mfBmwDGvMiJkUWf-0">
          <mxGeometry width="50" height="50" relative="1" as="geometry">
            <mxPoint x="730" y="620" as="sourcePoint" />
            <mxPoint x="780" y="570" as="targetPoint" />
            <Array as="points">
              <mxPoint x="750" y="340" />
            </Array>
          </mxGeometry>
        </mxCell>
        <mxCell id="kqGL1mfBmwDGvMiJkUWf-32" value="&lt;font style=&quot;font-size: 17px;&quot;&gt;Añadimos los productos a nuestro stock&lt;/font&gt;" style="text;html=1;strokeColor=none;fillColor=none;align=center;verticalAlign=middle;whiteSpace=wrap;rounded=0;" vertex="1" parent="WIyWlLk6GJQsqaUBKTNV-1">
          <mxGeometry x="730" y="280" width="160" height="30" as="geometry" />
        </mxCell>
        <mxCell id="kqGL1mfBmwDGvMiJkUWf-33" value="" style="endArrow=classic;html=1;rounded=0;exitX=1;exitY=0.5;exitDx=0;exitDy=0;entryX=0;entryY=0.5;entryDx=0;entryDy=0;" edge="1" parent="WIyWlLk6GJQsqaUBKTNV-1" source="kqGL1mfBmwDGvMiJkUWf-28" target="kqGL1mfBmwDGvMiJkUWf-1">
          <mxGeometry width="50" height="50" relative="1" as="geometry">
            <mxPoint x="620" y="715" as="sourcePoint" />
            <mxPoint x="940" y="335" as="targetPoint" />
            <Array as="points">
              <mxPoint x="750" y="510" />
            </Array>
          </mxGeometry>
        </mxCell>
        <mxCell id="kqGL1mfBmwDGvMiJkUWf-34" value="&lt;font style=&quot;font-size: 17px;&quot;&gt;Pagamos a los proveedores, y nos restamos el capital&lt;/font&gt;" style="text;html=1;strokeColor=none;fillColor=none;align=center;verticalAlign=middle;whiteSpace=wrap;rounded=0;" vertex="1" parent="WIyWlLk6GJQsqaUBKTNV-1">
          <mxGeometry x="740" y="433" width="160" height="30" as="geometry" />
        </mxCell>
      </root>
    </mxGraphModel>
  </diagram>
</mxfile>
